<svg width="1691" height="532" viewBox="0 0 1691 532" fill="none" xmlns="http://www.w3.org/2000/svg">
<path d="M598.041 206L312 64.8508L25.9594 206L0 154.141L311.594 0.364981L311.72 0L312 0.161318L312.28 0L312.406 0.364981L624 154.141L598.041 206Z" fill="black"/>
<path d="M32 226.4H160.4V269.2H79.08V348.38H143.708V391.18H79.08V483.2H160.4V526H32V226.4Z" fill="black"/>
<path d="M166.084 226.4H294.484V269.2H213.164V348.38H277.792V391.18H213.164V483.2H294.484V526H166.084V226.4Z" fill="black"/>
<path d="M300.169 226.4H372.073C395.47 226.4 413.018 232.677 424.717 245.232C436.415 257.787 442.265 276.191 442.265 300.444V451.956C442.265 476.209 436.415 494.613 424.717 507.168C413.018 519.723 395.47 526 372.073 526H300.169V226.4ZM371.217 483.2C378.921 483.2 384.77 480.917 388.765 476.352C393.045 471.787 395.185 464.368 395.185 454.096V298.304C395.185 288.032 393.045 280.613 388.765 276.048C384.77 271.483 378.921 269.2 371.217 269.2H347.249V483.2H371.217Z" fill="black"/>
<path d="M521.124 530.28C498.297 530.28 480.892 523.86 468.908 511.02C456.924 497.895 450.932 479.205 450.932 454.952V226.4H498.012V458.376C498.012 468.648 500.009 476.067 504.004 480.632C508.284 485.197 514.276 487.48 521.98 487.48C529.684 487.48 535.533 485.197 539.528 480.632C543.808 476.067 545.948 468.648 545.948 458.376V226.4H591.316V454.952C591.316 479.205 585.324 497.895 573.34 511.02C561.356 523.86 543.95 530.28 521.124 530.28Z" fill="black"/>
<path d="M653.008 531.48C645.213 531.48 639.244 529.26 635.1 524.82C631.055 520.38 629.032 514.115 629.032 506.024V450.376C629.032 442.285 631.055 436.02 635.1 431.58C639.244 427.14 645.213 424.92 653.008 424.92C660.803 424.92 666.723 427.14 670.768 431.58C674.912 436.02 676.984 442.285 676.984 450.376V461.328H661.592V449.34C661.592 442.927 658.879 439.72 653.452 439.72C648.025 439.72 645.312 442.927 645.312 449.34V507.208C645.312 513.523 648.025 516.68 653.452 516.68C658.879 516.68 661.592 513.523 661.592 507.208V491.372H676.984V506.024C676.984 514.115 674.912 520.38 670.768 524.82C666.723 529.26 660.803 531.48 653.008 531.48Z" fill="black"/>
<path d="M691.904 426.4H713.956L730.828 530H714.548L711.588 509.428V509.724H693.088L690.128 530H675.032L691.904 426.4ZM709.664 495.664L702.412 444.456H702.116L695.012 495.664H709.664Z" fill="black"/>
<path d="M840.048 424V346.24H870.192V354.304H850.896V380.032H866.544V387.712H850.896V416.224H870.384V424H840.048Z" fill="black"/>
<path d="M897.478 424.864C892.998 424.864 889.254 423.904 886.246 421.984C883.302 420.064 881.062 417.408 879.526 414.016C877.99 410.624 877.094 406.688 876.838 402.208L886.438 399.616C886.63 402.368 887.046 405.024 887.686 407.584C888.39 410.144 889.51 412.256 891.046 413.92C892.582 415.52 894.726 416.32 897.478 416.32C900.294 416.32 902.406 415.552 903.814 414.016C905.286 412.416 906.022 410.144 906.022 407.2C906.022 403.68 905.222 400.864 903.622 398.752C902.022 396.576 900.006 394.4 897.574 392.224L884.518 380.704C881.958 378.464 880.07 376.032 878.854 373.408C877.638 370.72 877.03 367.424 877.03 363.52C877.03 357.824 878.662 353.408 881.926 350.272C885.19 347.136 889.638 345.568 895.27 345.568C898.342 345.568 901.03 345.984 903.334 346.816C905.702 347.584 907.654 348.8 909.19 350.464C910.79 352.128 912.038 354.24 912.934 356.8C913.894 359.296 914.534 362.24 914.854 365.632L905.638 368.128C905.446 365.568 905.062 363.232 904.486 361.12C903.91 358.944 902.886 357.216 901.414 355.936C900.006 354.592 897.958 353.92 895.27 353.92C892.582 353.92 890.47 354.656 888.934 356.128C887.462 357.536 886.726 359.648 886.726 362.464C886.726 364.832 887.11 366.784 887.878 368.32C888.71 369.856 890.022 371.424 891.814 373.024L904.966 384.544C907.91 387.104 910.502 390.176 912.742 393.76C914.982 397.28 916.102 401.472 916.102 406.336C916.102 410.176 915.302 413.504 913.702 416.32C912.102 419.072 909.894 421.184 907.078 422.656C904.326 424.128 901.126 424.864 897.478 424.864Z" fill="black"/>
<path d="M942.196 424.864C937.716 424.864 933.972 423.904 930.964 421.984C928.02 420.064 925.781 417.408 924.245 414.016C922.709 410.624 921.813 406.688 921.557 402.208L931.156 399.616C931.348 402.368 931.764 405.024 932.404 407.584C933.108 410.144 934.229 412.256 935.765 413.92C937.301 415.52 939.444 416.32 942.196 416.32C945.012 416.32 947.125 415.552 948.533 414.016C950.005 412.416 950.74 410.144 950.74 407.2C950.74 403.68 949.941 400.864 948.341 398.752C946.741 396.576 944.724 394.4 942.292 392.224L929.237 380.704C926.677 378.464 924.789 376.032 923.573 373.408C922.357 370.72 921.748 367.424 921.748 363.52C921.748 357.824 923.381 353.408 926.645 350.272C929.909 347.136 934.357 345.568 939.989 345.568C943.061 345.568 945.748 345.984 948.052 346.816C950.42 347.584 952.373 348.8 953.909 350.464C955.509 352.128 956.757 354.24 957.653 356.8C958.613 359.296 959.253 362.24 959.573 365.632L950.357 368.128C950.165 365.568 949.781 363.232 949.205 361.12C948.629 358.944 947.605 357.216 946.133 355.936C944.725 354.592 942.677 353.92 939.989 353.92C937.301 353.92 935.189 354.656 933.653 356.128C932.181 357.536 931.445 359.648 931.445 362.464C931.445 364.832 931.828 366.784 932.596 368.32C933.428 369.856 934.74 371.424 936.532 373.024L949.685 384.544C952.629 387.104 955.221 390.176 957.461 393.76C959.701 397.28 960.82 401.472 960.82 406.336C960.82 410.176 960.02 413.504 958.42 416.32C956.82 419.072 954.613 421.184 951.797 422.656C949.045 424.128 945.844 424.864 942.196 424.864Z" fill="black"/>
<path d="M969.235 424V346.24H999.38V354.304H980.083V380.032H995.732V387.712H980.083V416.224H999.571V424H969.235Z" fill="black"/>
<path d="M1008.33 424V346.24H1015.72L1037.8 397.888V346.24H1046.83V424H1039.91L1017.55 370.912V424H1008.33Z" fill="black"/>
<path d="M1067.59 424V354.304H1054.44V346.24H1091.21V354.304H1078.44V424H1067.59Z" fill="black"/>
<path d="M1099.28 424V346.24H1109.94V424H1099.28Z" fill="black"/>
<path d="M1118.29 424L1134.8 346.24H1145.27L1161.88 424H1151.6L1148.05 404.416H1132.21L1128.47 424H1118.29ZM1133.65 396.64H1146.61L1140.08 361.6L1133.65 396.64Z" fill="black"/>
<path d="M1169.77 424V346.24H1180.61V416.224H1200.49V424H1169.77Z" fill="black"/>
<path d="M1229.86 424V346.24H1260V354.304H1240.71V380.032H1256.36V387.712H1240.71V416.224H1260.2V424H1229.86Z" fill="black"/>
<path d="M1268.95 424V346.24H1285.85C1291.61 346.24 1296.15 347.136 1299.48 348.928C1302.87 350.656 1305.27 353.28 1306.68 356.8C1308.15 360.32 1308.89 364.704 1308.89 369.952V398.56C1308.89 404.064 1308.15 408.704 1306.68 412.48C1305.27 416.256 1302.94 419.136 1299.67 421.12C1296.47 423.04 1292.15 424 1286.71 424H1268.95ZM1279.8 416.224H1285.95C1289.91 416.224 1292.73 415.456 1294.39 413.92C1296.06 412.384 1297.05 410.144 1297.37 407.2C1297.75 404.256 1297.95 400.704 1297.95 396.544V371.296C1297.95 367.264 1297.69 364 1297.18 361.504C1296.67 359.008 1295.55 357.184 1293.82 356.032C1292.09 354.88 1289.37 354.304 1285.66 354.304H1279.8V416.224Z" fill="black"/>
<path d="M1339.64 424.864C1334.01 424.864 1329.69 423.744 1326.68 421.504C1323.68 419.264 1321.63 416.128 1320.54 412.096C1319.45 408 1318.91 403.232 1318.91 397.792V346.24H1329.28V398.272C1329.28 401.6 1329.5 404.64 1329.95 407.392C1330.4 410.144 1331.36 412.32 1332.83 413.92C1334.36 415.52 1336.64 416.32 1339.64 416.32C1342.72 416.32 1344.99 415.52 1346.46 413.92C1347.93 412.32 1348.89 410.144 1349.34 407.392C1349.79 404.64 1350.01 401.6 1350.01 398.272V346.24H1360.28V397.792C1360.28 403.232 1359.74 408 1358.65 412.096C1357.56 416.128 1355.52 419.264 1352.51 421.504C1349.56 423.744 1345.28 424.864 1339.64 424.864Z" fill="black"/>
<path d="M1391.19 424.864C1385.69 424.864 1381.4 423.712 1378.33 421.408C1375.32 419.104 1373.21 416 1371.99 412.096C1370.84 408.192 1370.26 403.84 1370.26 399.04V371.584C1370.26 366.336 1370.84 361.76 1371.99 357.856C1373.21 353.952 1375.32 350.944 1378.33 348.832C1381.4 346.656 1385.69 345.568 1391.19 345.568C1396.06 345.568 1399.9 346.464 1402.71 348.256C1405.59 350.048 1407.64 352.608 1408.86 355.936C1410.14 359.264 1410.78 363.264 1410.78 367.936V374.08H1400.5V368.608C1400.5 365.728 1400.34 363.2 1400.02 361.024C1399.77 358.784 1399 357.056 1397.72 355.84C1396.44 354.624 1394.3 354.016 1391.29 354.016C1388.22 354.016 1385.98 354.688 1384.57 356.032C1383.16 357.312 1382.23 359.168 1381.78 361.6C1381.4 363.968 1381.21 366.752 1381.21 369.952V400.768C1381.21 404.672 1381.53 407.776 1382.17 410.08C1382.81 412.32 1383.86 413.92 1385.34 414.88C1386.81 415.84 1388.79 416.32 1391.29 416.32C1394.23 416.32 1396.34 415.68 1397.62 414.4C1398.9 413.056 1399.7 411.232 1400.02 408.928C1400.34 406.624 1400.5 403.936 1400.5 400.864V395.104H1410.78V400.864C1410.78 405.6 1410.2 409.792 1409.05 413.44C1407.9 417.024 1405.91 419.84 1403.1 421.888C1400.28 423.872 1396.31 424.864 1391.19 424.864Z" fill="black"/>
<path d="M1416.89 424L1433.4 346.24H1443.86L1460.47 424H1450.2L1446.65 404.416H1430.81L1427.06 424H1416.89ZM1432.25 396.64H1445.21L1438.68 361.6L1432.25 396.64Z" fill="black"/>
<path d="M1472.97 424V354.304H1459.81V346.24H1496.58V354.304H1483.81V424H1472.97Z" fill="black"/>
<path d="M1504.66 424V346.24H1515.31V424H1504.66Z" fill="black"/>
<path d="M1547.76 424.864C1542.52 424.864 1538.32 423.84 1535.19 421.792C1532.05 419.744 1529.81 416.832 1528.47 413.056C1527.12 409.216 1526.45 404.736 1526.45 399.616V370.144C1526.45 365.024 1527.12 360.64 1528.47 356.992C1529.88 353.28 1532.12 350.464 1535.19 348.544C1538.32 346.56 1542.52 345.568 1547.76 345.568C1553.01 345.568 1557.17 346.56 1560.24 348.544C1563.32 350.528 1565.52 353.344 1566.87 356.992C1568.28 360.64 1568.98 365.024 1568.98 370.144V399.712C1568.98 404.768 1568.28 409.184 1566.87 412.96C1565.52 416.736 1563.32 419.68 1560.24 421.792C1557.17 423.84 1553.01 424.864 1547.76 424.864ZM1547.76 416.32C1550.64 416.32 1552.82 415.744 1554.29 414.592C1555.76 413.376 1556.76 411.712 1557.27 409.6C1557.78 407.424 1558.04 404.896 1558.04 402.016V367.936C1558.04 365.056 1557.78 362.592 1557.27 360.544C1556.76 358.432 1555.76 356.832 1554.29 355.744C1552.82 354.592 1550.64 354.016 1547.76 354.016C1544.88 354.016 1542.68 354.592 1541.14 355.744C1539.67 356.832 1538.68 358.432 1538.16 360.544C1537.65 362.592 1537.4 365.056 1537.4 367.936V402.016C1537.4 404.896 1537.65 407.424 1538.16 409.6C1538.68 411.712 1539.67 413.376 1541.14 414.592C1542.68 415.744 1544.88 416.32 1547.76 416.32Z" fill="black"/>
<path d="M1579.64 424V346.24H1587.03L1609.11 397.888V346.24H1618.14V424H1611.23L1588.86 370.912V424H1579.64Z" fill="black"/>
<path d="M840.048 530V452.24H870.192V460.304H850.896V486.032H866.544V493.712H850.896V522.224H870.384V530H840.048ZM852.816 447.632L858.48 428.624H868.752L858 447.632H852.816Z" fill="black"/>
<path d="M879.142 530V452.24H896.038C901.798 452.24 906.342 453.136 909.67 454.928C913.062 456.656 915.462 459.28 916.87 462.8C918.342 466.32 919.078 470.704 919.078 475.952V504.56C919.078 510.064 918.342 514.704 916.87 518.48C915.462 522.256 913.126 525.136 909.862 527.12C906.662 529.04 902.342 530 896.902 530H879.142ZM889.99 522.224H896.134C900.102 522.224 902.918 521.456 904.582 519.92C906.246 518.384 907.238 516.144 907.558 513.2C907.942 510.256 908.134 506.704 908.134 502.544V477.296C908.134 473.264 907.878 470 907.366 467.504C906.854 465.008 905.734 463.184 904.006 462.032C902.278 460.88 899.558 460.304 895.846 460.304H889.99V522.224Z" fill="black"/>
<path d="M949.831 530.864C944.199 530.864 939.879 529.744 936.871 527.504C933.863 525.264 931.815 522.128 930.727 518.096C929.639 514 929.095 509.232 929.095 503.792V452.24H939.463V504.272C939.463 507.6 939.687 510.64 940.135 513.392C940.583 516.144 941.543 518.32 943.015 519.92C944.551 521.52 946.823 522.32 949.831 522.32C952.903 522.32 955.175 521.52 956.647 519.92C958.119 518.32 959.079 516.144 959.527 513.392C959.975 510.64 960.199 507.6 960.199 504.272V452.24H970.471V503.792C970.471 509.232 969.927 514 968.839 518.096C967.751 522.128 965.703 525.264 962.695 527.504C959.751 529.744 955.463 530.864 949.831 530.864Z" fill="black"/>
<path d="M1001.38 530.864C995.876 530.864 991.588 529.712 988.516 527.408C985.508 525.104 983.396 522 982.18 518.096C981.028 514.192 980.452 509.84 980.452 505.04V477.584C980.452 472.336 981.028 467.76 982.18 463.856C983.396 459.952 985.508 456.944 988.516 454.832C991.588 452.656 995.876 451.568 1001.38 451.568C1006.24 451.568 1010.08 452.464 1012.9 454.256C1015.78 456.048 1017.83 458.608 1019.04 461.936C1020.32 465.264 1020.96 469.264 1020.96 473.936V480.08H1010.69V474.608C1010.69 471.728 1010.53 469.2 1010.21 467.024C1009.96 464.784 1009.19 463.056 1007.91 461.84C1006.63 460.624 1004.48 460.016 1001.48 460.016C998.404 460.016 996.164 460.688 994.756 462.032C993.348 463.312 992.42 465.168 991.972 467.6C991.588 469.968 991.396 472.752 991.396 475.952V506.768C991.396 510.672 991.716 513.776 992.356 516.08C992.996 518.32 994.052 519.92 995.524 520.88C996.996 521.84 998.98 522.32 1001.48 522.32C1004.42 522.32 1006.53 521.68 1007.81 520.4C1009.09 519.056 1009.89 517.232 1010.21 514.928C1010.53 512.624 1010.69 509.936 1010.69 506.864V501.104H1020.96V506.864C1020.96 511.6 1020.39 515.792 1019.24 519.44C1018.08 523.024 1016.1 525.84 1013.28 527.888C1010.47 529.872 1006.5 530.864 1001.38 530.864Z" fill="black"/>
<path d="M1027.07 530L1043.59 452.24H1054.05L1070.66 530H1060.39L1056.83 510.416H1040.99L1037.25 530H1027.07ZM1042.43 502.64H1055.39L1048.87 467.6L1042.43 502.64Z" fill="black"/>
<path d="M1083.15 530V460.304H1070V452.24H1106.77V460.304H1094V530H1083.15Z" fill="black"/>
<path d="M1114.84 530V452.24H1125.5V530H1114.84Z" fill="black"/>
<path d="M1157.95 530.864C1152.7 530.864 1148.51 529.84 1145.38 527.792C1142.24 525.744 1140 522.832 1138.66 519.056C1137.31 515.216 1136.64 510.736 1136.64 505.616V476.144C1136.64 471.024 1137.31 466.64 1138.66 462.992C1140.06 459.28 1142.3 456.464 1145.38 454.544C1148.51 452.56 1152.7 451.568 1157.95 451.568C1163.2 451.568 1167.36 452.56 1170.43 454.544C1173.5 456.528 1175.71 459.344 1177.06 462.992C1178.46 466.64 1179.17 471.024 1179.17 476.144V505.712C1179.17 510.768 1178.46 515.184 1177.06 518.96C1175.71 522.736 1173.5 525.68 1170.43 527.792C1167.36 529.84 1163.2 530.864 1157.95 530.864ZM1157.95 522.32C1160.83 522.32 1163.01 521.744 1164.48 520.592C1165.95 519.376 1166.94 517.712 1167.46 515.6C1167.97 513.424 1168.22 510.896 1168.22 508.016V473.936C1168.22 471.056 1167.97 468.592 1167.46 466.544C1166.94 464.432 1165.95 462.832 1164.48 461.744C1163.01 460.592 1160.83 460.016 1157.95 460.016C1155.07 460.016 1152.86 460.592 1151.33 461.744C1149.86 462.832 1148.86 464.432 1148.35 466.544C1147.84 468.592 1147.58 471.056 1147.58 473.936V508.016C1147.58 510.896 1147.84 513.424 1148.35 515.6C1148.86 517.712 1149.86 519.376 1151.33 520.592C1152.86 521.744 1155.07 522.32 1157.95 522.32Z" fill="black"/>
<path d="M1189.83 530V452.24H1197.22L1219.3 503.888V452.24H1228.33V530H1221.41L1199.05 476.912V530H1189.83Z" fill="black"/>
<path d="M1262.49 530V452.24H1292.63V460.304H1273.33V486.032H1288.98V493.712H1273.33V522.224H1292.82V530H1262.49Z" fill="black"/>
<path d="M1319.92 530.864C1315.44 530.864 1311.69 529.904 1308.68 527.984C1305.74 526.064 1303.5 523.408 1301.96 520.016C1300.43 516.624 1299.53 512.688 1299.28 508.208L1308.88 505.616C1309.07 508.368 1309.48 511.024 1310.12 513.584C1310.83 516.144 1311.95 518.256 1313.48 519.92C1315.02 521.52 1317.16 522.32 1319.92 522.32C1322.73 522.32 1324.84 521.552 1326.25 520.016C1327.72 518.416 1328.46 516.144 1328.46 513.2C1328.46 509.68 1327.66 506.864 1326.06 504.752C1324.46 502.576 1322.44 500.4 1320.01 498.224L1306.96 486.704C1304.4 484.464 1302.51 482.032 1301.29 479.408C1300.08 476.72 1299.47 473.424 1299.47 469.52C1299.47 463.824 1301.1 459.408 1304.36 456.272C1307.63 453.136 1312.08 451.568 1317.71 451.568C1320.78 451.568 1323.47 451.984 1325.77 452.816C1328.14 453.584 1330.09 454.8 1331.63 456.464C1333.23 458.128 1334.48 460.24 1335.37 462.8C1336.33 465.296 1336.97 468.24 1337.29 471.632L1328.08 474.128C1327.88 471.568 1327.5 469.232 1326.92 467.12C1326.35 464.944 1325.32 463.216 1323.85 461.936C1322.44 460.592 1320.4 459.92 1317.71 459.92C1315.02 459.92 1312.91 460.656 1311.37 462.128C1309.9 463.536 1309.16 465.648 1309.16 468.464C1309.16 470.832 1309.55 472.784 1310.32 474.32C1311.15 475.856 1312.46 477.424 1314.25 479.024L1327.4 490.544C1330.35 493.104 1332.94 496.176 1335.18 499.76C1337.42 503.28 1338.54 507.472 1338.54 512.336C1338.54 516.176 1337.74 519.504 1336.14 522.32C1334.54 525.072 1332.33 527.184 1329.52 528.656C1326.76 530.128 1323.56 530.864 1319.92 530.864Z" fill="black"/>
<path d="M1364.63 530.864C1360.15 530.864 1356.41 529.904 1353.4 527.984C1350.46 526.064 1348.22 523.408 1346.68 520.016C1345.15 516.624 1344.25 512.688 1343.99 508.208L1353.59 505.616C1353.79 508.368 1354.2 511.024 1354.84 513.584C1355.55 516.144 1356.67 518.256 1358.2 519.92C1359.74 521.52 1361.88 522.32 1364.63 522.32C1367.45 522.32 1369.56 521.552 1370.97 520.016C1372.44 518.416 1373.18 516.144 1373.18 513.2C1373.18 509.68 1372.38 506.864 1370.78 504.752C1369.18 502.576 1367.16 500.4 1364.73 498.224L1351.67 486.704C1349.11 484.464 1347.23 482.032 1346.01 479.408C1344.79 476.72 1344.19 473.424 1344.19 469.52C1344.19 463.824 1345.82 459.408 1349.08 456.272C1352.35 453.136 1356.79 451.568 1362.43 451.568C1365.5 451.568 1368.19 451.984 1370.49 452.816C1372.86 453.584 1374.81 454.8 1376.35 456.464C1377.95 458.128 1379.19 460.24 1380.09 462.8C1381.05 465.296 1381.69 468.24 1382.01 471.632L1372.79 474.128C1372.6 471.568 1372.22 469.232 1371.64 467.12C1371.07 464.944 1370.04 463.216 1368.57 461.936C1367.16 460.592 1365.11 459.92 1362.43 459.92C1359.74 459.92 1357.63 460.656 1356.09 462.128C1354.62 463.536 1353.88 465.648 1353.88 468.464C1353.88 470.832 1354.27 472.784 1355.03 474.32C1355.87 475.856 1357.18 477.424 1358.97 479.024L1372.12 490.544C1375.07 493.104 1377.66 496.176 1379.9 499.76C1382.14 503.28 1383.26 507.472 1383.26 512.336C1383.26 516.176 1382.46 519.504 1380.86 522.32C1379.26 525.072 1377.05 527.184 1374.23 528.656C1371.48 530.128 1368.28 530.864 1364.63 530.864Z" fill="black"/>
<path d="M1391.67 530V452.24H1421.82V460.304H1402.52V486.032H1418.17V493.712H1402.52V522.224H1422.01V530H1391.67Z" fill="black"/>
<path d="M1430.77 530V452.24H1438.16L1460.24 503.888V452.24H1469.26V530H1462.35L1439.98 476.912V530H1430.77Z" fill="black"/>
<path d="M1490.03 530V460.304H1476.88V452.24H1513.65V460.304H1500.88V530H1490.03Z" fill="black"/>
<path d="M1521.72 530V452.24H1532.37V530H1521.72Z" fill="black"/>
<path d="M1544.95 530V452.24H1575.1V460.304H1555.8V486.032H1571.45V493.712H1555.8V522.224H1575.29V530H1544.95Z" fill="black"/>
<path d="M1584.05 530V452.24H1594.9V522.224H1614.77V530H1584.05Z" fill="black"/>
<path d="M1622.2 530V452.24H1633.05V522.224H1652.92V530H1622.2Z" fill="black"/>
<path d="M1660.36 530V452.24H1690.5V460.304H1671.21V486.032H1686.86V493.712H1671.21V522.224H1690.7V530H1660.36Z" fill="black"/>
</svg>
