<svg width="731" height="532" viewBox="0 0 731 532" fill="none" xmlns="http://www.w3.org/2000/svg">
<path d="M598.041 206L312 64.8508L25.9594 206L0 154.141L311.594 0.364981L311.72 0L312 0.161318L312.28 0L312.406 0.364981L624 154.141L598.041 206Z" fill="black"/>
<path d="M32 226.4H160.4V269.2H79.08V348.38H143.708V391.18H79.08V483.2H160.4V526H32V226.4Z" fill="black"/>
<path d="M166.084 226.4H294.484V269.2H213.164V348.38H277.792V391.18H213.164V483.2H294.484V526H166.084V226.4Z" fill="black"/>
<path d="M300.169 226.4H372.073C395.47 226.4 413.018 232.677 424.717 245.232C436.415 257.787 442.265 276.191 442.265 300.444V451.956C442.265 476.209 436.415 494.613 424.717 507.168C413.018 519.723 395.47 526 372.073 526H300.169V226.4ZM371.217 483.2C378.921 483.2 384.77 480.917 388.765 476.352C393.045 471.787 395.185 464.368 395.185 454.096V298.304C395.185 288.032 393.045 280.613 388.765 276.048C384.77 271.483 378.921 269.2 371.217 269.2H347.249V483.2H371.217Z" fill="black"/>
<path d="M521.124 530.28C498.297 530.28 480.892 523.86 468.908 511.02C456.924 497.895 450.932 479.205 450.932 454.952V226.4H498.012V458.376C498.012 468.648 500.009 476.067 504.004 480.632C508.284 485.197 514.276 487.48 521.98 487.48C529.684 487.48 535.533 485.197 539.528 480.632C543.808 476.067 545.948 468.648 545.948 458.376V226.4H591.316V454.952C591.316 479.205 585.324 497.895 573.34 511.02C561.356 523.86 543.95 530.28 521.124 530.28Z" fill="black"/>
<path d="M653.008 531.48C645.213 531.48 639.244 529.26 635.1 524.82C631.055 520.38 629.032 514.115 629.032 506.024V450.376C629.032 442.285 631.055 436.02 635.1 431.58C639.244 427.14 645.213 424.92 653.008 424.92C660.803 424.92 666.723 427.14 670.768 431.58C674.912 436.02 676.984 442.285 676.984 450.376V461.328H661.592V449.34C661.592 442.927 658.879 439.72 653.452 439.72C648.025 439.72 645.312 442.927 645.312 449.34V507.208C645.312 513.523 648.025 516.68 653.452 516.68C658.879 516.68 661.592 513.523 661.592 507.208V491.372H676.984V506.024C676.984 514.115 674.912 520.38 670.768 524.82C666.723 529.26 660.803 531.48 653.008 531.48Z" fill="black"/>
<path d="M691.904 426.4H713.956L730.828 530H714.548L711.588 509.428V509.724H693.088L690.128 530H675.032L691.904 426.4ZM709.664 495.664L702.412 444.456H702.116L695.012 495.664H709.664Z" fill="black"/>
</svg>
